<svg width="16" height="26" viewBox="0 0 16 26" fill="none" xmlns="http://www.w3.org/2000/svg">
<path d="M13.947 6.91969H11.3174V2.34406C11.3174 0.988707 10.9693 0.578949 9.76429 0.578949H5.68335C4.47299 0.578949 4.09274 1.02023 4.09274 2.34406V6.91969H2.02014C0.879408 6.91969 0.600922 7.12457 0.600922 8.17523V11.8736C0.600922 12.9242 0.879408 13.1291 2.02014 13.1291H4.09274V19.5697C4.09274 23.9089 6.40635 25.8421 10.7658 25.8421C12.0458 25.8421 13.3257 25.7423 14.5361 25.5006C15.0556 25.4008 15.1948 25.2642 15.1948 24.7547L15.0234 19.5644C15.0234 19.1231 14.7825 18.955 14.3326 19.0548C13.9523 19.1546 13.5721 19.2229 13.0526 19.2229C12.0511 19.2229 11.3228 18.8815 11.3228 17.4263V13.1186H13.9523C15.0931 13.1186 15.3716 12.9137 15.3716 11.8631V8.16473C15.3716 7.11406 15.0931 6.90918 13.9523 6.90918L13.947 6.91969Z" fill="#103559"/>
</svg>
