<svg width="28" height="26" viewBox="0 0 28 26" fill="none" xmlns="http://www.w3.org/2000/svg">
<path d="M24.9886 2.21457C24.8505 0.853311 24.3036 0.578949 23.2416 0.578949H18.7175C17.7246 0.578949 17.4856 0.747787 17.1086 1.83996L13.7156 12.8725L10.3226 1.83996C9.94555 0.747787 9.7066 0.578949 8.71364 0.578949H4.18428C3.12229 0.578949 2.57537 0.853311 2.43731 2.21457L0.0372224 23.8733C-0.0636662 24.6542 0.00536284 24.9655 0.690344 25.0657L5.86752 25.815C6.65339 25.9152 6.82862 25.7464 6.92951 25.166L8.06052 15.0199L10.4925 24.5223C10.7314 25.3032 11.0394 25.6145 11.8306 25.6145H15.6006C16.3865 25.6145 16.6998 25.3084 16.9387 24.5223L19.3388 15.0199L20.5017 25.166C20.6026 25.7464 20.7778 25.9152 21.5637 25.815L26.7409 25.0657C27.4258 24.9655 27.4949 24.6595 27.394 23.8733L24.9886 2.21457Z" fill="#103559"/>
</svg>
