<svg width="19" height="20" viewBox="0 0 19 20" fill="none" xmlns="http://www.w3.org/2000/svg">
<path d="M11.4518 0.378925C10.2608 0.378925 1.34898 0.61557 0.769259 1.43068C0.532103 1.70414 0.532104 2.07751 0.532104 2.71908L0.80615 17.5173C0.837771 18.874 1.14871 19.3158 2.33449 19.3158H6.48737C7.67842 19.3158 8.01571 18.874 8.01571 17.5173V7.29947C8.52691 7.13119 8.69556 7.06283 9.27527 7.02602C10.0553 6.99447 10.4294 7.23111 10.6719 7.87268C10.8405 8.55106 10.8774 9.57126 10.8774 10.9596L10.8458 17.512C10.8458 18.8688 11.22 19.3105 12.411 19.3105H16.664C17.8551 19.3105 18.1607 18.8688 18.1924 17.512L18.4664 8.4827C18.498 6.27401 18.0237 4.23887 16.9012 2.74537C15.7101 1.25188 13.9394 0.368408 11.4571 0.368408L11.4518 0.378925Z" fill="#103559"/>
</svg>
